<svg width="652" height="186" viewBox="0 0 652 186" fill="none" xmlns="http://www.w3.org/2000/svg">
<path d="M399.2 55.0999L389.3 37.7999L371.7 46.4999L361.8 29.1999L344.2 37.8999L334.3 20.5999L316.7 29.2999L306.8 11.9999L289.2 20.6999L279.3 3.3999L261.7 12.0999L224.2 137.3L269.6 151.6C272.6 141.5 281.8 134.1 292.6 134.1C305.9 134.1 316.7 145.2 316.7 158.9V159.4C316.8 161.6 316.6 163.9 315.9 166.1L362.1 180.7" fill="#D70B17"/>
<path d="M263.1 126.9C260.7 126.5 259.1 124.4 259.1 121.9V60.4C259.1 57.5 261.3 55.3 264.1 55.3H307.1C308.2 55.3 309.3 55.4001 310.4 55.6001C319.6 57.3001 326.4 65.5001 326.4 75.2001V121.9C326.4 123.3 325.9 124.6 324.9 125.6C324 126.5 322.7 127.1 321.4 127.1L320.5 127C318.1 126.6 316.5 124.5 316.5 122V75.4C316.5 70.7 313.2 66.7 308.7 65.9L307.1 65.7H297.7V122C297.7 123.4 297.2 124.7 296.2 125.7C295.3 126.6 294 127.2 292.7 127.2L291.8 127.1C289.4 126.7 287.8 124.6 287.8 122.1V65.7H269V122C269 123.4 268.5 124.7 267.5 125.6C266.6 126.5 265.3 127.1 264 127.1L263.1 126.9Z" fill="white"/>
<path d="M334.6 153.7C332.2 153.3 330.6 151.2 330.6 148.7C330.6 147.3 331.1 146 332 145.1C332.9 144.2 334.2 143.6 335.5 143.6C339.7 143.6 343.3 140.8 344.5 136.7L349.6 119.1L332.9 61.4001C332.1 58.7001 333.6 55.8001 336.2 54.9001L338.4 54.8001C340.2 55.1001 341.7 56.5001 342.3 58.3001L354.7 101.3L367.3 58.3001C367.9 55.9001 370.4 54.3001 373 54.8001L373.3 54.9001C376 55.8001 377.5 58.7001 376.6 61.4001L359.4 120.6L354 139.6C352.6 144 350.2 147.5 347 149.9C343.6 152.5 339.6 153.9 335.4 153.9L334.6 153.7Z" fill="white"/>
<path d="M25.3 126.3C22.8 125.8 21.1 123.7 21.1 121.1V29.3C21.1 27.8 21.6 26.5 22.6 25.5C23.5 24.5 24.9 24 26.3 24L27.2 24.1C29.7 24.6 31.5 26.7 31.5 29.3V55.4H41.3C42.5 55.4 43.6 55.5 44.8 55.7C54.4 57.4 61.4 66 61.4 76.1V105.7C61.4 117.1 52.4 126.4 41.3 126.4H26.4L25.3 126.3ZM31.4 115.7H41.2C46.6 115.7 51 111.2 51 105.6V76C51 71.1 47.6 66.9 42.9 66.1L41.2 65.9H31.4V115.7Z" fill="#5B5B5B"/>
<path d="M91 126.7C81.4 125 74.5 116.4 74.5 106.3V75.5C74.5 69.9 76.6 64.8 80.4 60.8C84.2 56.9 89.2 54.7 94.6 54.7C95.8 54.7 96.9 54.8 98.1 55C107.7 56.7 114.7 65.2999 114.7 75.3999V106.2C114.7 111.7 112.6 116.9 108.8 120.9C105 124.8 100 126.9 94.7 126.9C93.4 127 92.2 126.9 91 126.7ZM96.2 65.5L94.5 65.3C89 65.3 84.7 69.6999 84.7 75.3999V106.2C84.7 111.1 88.1 115.3 92.7 116.1L94.4 116.3C99.8 116.3 104.2 111.8 104.2 106.2V75.3999C104.3 70.4999 100.9 66.4 96.2 65.5Z" fill="#5B5B5B"/>
<path d="M144.4 126.7C134.8 124.9 127.9 116.4 127.9 106.3V75.5C127.9 64.1 136.9 54.8 148 54.8C149.2 54.8 150.3 54.9001 151.5 55.1001C161 56.8001 168 65.4 168 75.4V106.2C168 111.7 165.9 116.9 162.1 120.9C158.3 124.8 153.3 126.9 147.9 126.9C146.7 127 145.5 126.9 144.4 126.7ZM149.6 65.5L147.9 65.3C142.4 65.3 138.1 69.7 138.1 75.4V106.2C138.1 111.1 141.5 115.3 146.1 116.1L147.8 116.3C150.4 116.3 152.8 115.3 154.7 113.4C156.6 111.5 157.6 109 157.6 106.2V75.4C157.7 70.5 154.3 66.4 149.6 65.5Z" fill="#5B5B5B"/>
<path d="M185.4 126.9C182.9 126.5 181.2 124.3 181.2 121.7V29.3C181.2 27.8 181.7 26.5 182.7 25.5C183.7 24.5 185 24 186.4 24L187.3 24.1C189.8 24.6 191.6 26.7 191.6 29.3V84L215.3 56.6C216.5 55.3 218.3 54.6 220.1 55L222.7 56.2C224.8 58.2 225 61.5 223.1 63.7L205 84.2L223.6 119.2C224.3 120.4 224.4 121.8 224.1 123.1C223.7 124.4 222.8 125.6 221.6 126.3C220.6 126.9 219.4 127.1 218.2 126.9C216.6 126.6 215.4 125.7 214.6 124.4L197.9 92.8L191.5 100V121.7C191.5 123.1 191 124.5 190 125.5C189 126.5 187.7 127 186.4 127L185.4 126.9Z" fill="#5B5B5B"/>
<path d="M412.7 126.8C407 125.8 402.2 122.3 399.3 117.1C398.6 115.9 398.5 114.4 398.8 113C399.2 111.6 400 110.5 401.2 109.8C402.2 109.2 403.4 109 404.6 109.2C406.1 109.5 407.4 110.4 408.2 111.8C409.6 114.2 411.7 115.7 414.3 116.2C417.2 116.7 419.8 115.9 421.9 113.9C423.9 112 424.9 109.3 424.7 106.6C424.6 103.8 423.2 101.3 421 99.7L407.1 89.5C402.5 86.2 399.7 81 399.2 75.1C398.9 69.1 401.1 63.5 405.2 59.7C409.3 55.7 414.9 53.9 420.5 54.7C426.3 55.8 431.1 59.2 433.8 64.1C434.4 65.3 434.6 66.7 434.3 68.1C433.9 69.5 433.1 70.7 431.9 71.3C430.9 71.9 429.7 72.1 428.5 71.9C427 71.6 425.7 70.7 424.9 69.4C423.7 67.3 421.6 65.8 419 65.3C416.4 64.9 413.9 65.6 412 67.4C410.2 69.1 409.2 71.6 409.4 74.3C409.5 76.8 410.9 79.3 413 80.7L426.9 90.7C431.7 94.2 434.6 99.7 434.9 105.7C435.4 111.7 433.1 117.5 428.7 121.5C424.5 125.5 418.7 127.4 412.9 126.6" fill="#5B5B5B"/>
<path d="M452.6 127C450.1 126.5 448.3 124.3 448.3 121.8V29.4001C448.3 28.0001 448.9 26.6001 449.9 25.6001C450.9 24.6001 452.2 24.1001 453.5 24.1001L454.4 24.2001C456.9 24.7001 458.6 26.8001 458.6 29.4001V55.5001H468.4C469.6 55.5001 470.8 55.6001 471.9 55.8001C481.5 57.5001 488.4 66.1001 488.4 76.2001V121.8C488.4 124.8 486.1 127.1 483.3 127.1L482.4 127C479.9 126.6 478.1 124.4 478.1 121.8V76.2001C478.1 71.3001 474.7 67.1001 470.1 66.3001L468.3 66.1001H458.5V121.8C458.5 124.8 456.2 127.1 453.3 127.1L452.6 127Z" fill="#5B5B5B"/>
<path d="M518.1 126.7C508.5 125 501.6 116.4 501.6 106.3V75.5C501.6 64.1 510.6 54.8 521.7 54.8C522.9 54.8 524 54.9001 525.2 55.1001C534.8 56.8001 541.8 65.4 541.8 75.5V106.3C541.8 111.8 539.7 117 535.9 121C532.1 124.9 527.1 127 521.8 127C520.5 127 519.3 126.9 518.1 126.7ZM523.4 65.6001L521.7 65.4C519.1 65.4 516.6 66.4 514.8 68.3C513 70.2 512 72.7 512 75.4V106.2C512 111.1 515.4 115.3 520 116.1L521.7 116.3C524.3 116.3 526.7 115.3 528.6 113.4C530.5 111.5 531.5 109 531.5 106.2V75.4C531.4 70.6 528 66.4001 523.4 65.6001Z" fill="#5B5B5B"/>
<path d="M621 61.2999C621.3 59.8999 621.1 58.5999 620.5 57.3999C619.8 56.1999 618.6 55.2999 617.2 54.9999L616.3 54.8999C614 54.8999 611.9 56.4999 611.3 58.8999C611.3 59.0999 605.7 82.1999 601.4 99.7999L601.3 100.2L601.2 99.7999C597 82.2999 591.3 59.1999 591.2 58.8999C590.8 56.7999 589.3 55.2999 587.2 54.9999L586.3 54.8999C584 54.8999 582.1 56.4999 581.4 58.8999C581.3 59.0999 575.8 82.1999 571.5 99.7999L571.4 100.2L571.3 99.7999C567.1 82.1999 561.4 59.1999 561.4 58.8999C560.9 56.8999 559.3 55.2999 557.4 54.9999L555.4 55.0999C552.7 55.7999 551 58.5999 551.7 61.3999L566.6 123C567.2 125 568.7 126.6 570.6 126.9L571.4 127C573.8 127 575.8 125.4 576.3 123C576.4 122.8 582 99.6999 586.3 82.0999L586.4 81.6999L586.5 82.0999C590.9 99.7999 596.4 123 596.4 123C597 125 598.5 126.5 600.4 126.9L601.2 127C603.6 127 605.6 125.4 606.1 123" fill="#5B5B5B"/>
</svg>
